#define ac_width 8
#define ac_height 10

static unsigned char ac_bits[] = {
  0x0E, 0x13, 0x21, 0x41, 0x82, 0x84, 0xC8, 0x70, 0x00, 0x00
};
