#define disk_width 8
#define disk_height 10

static unsigned char disk_bits[] = {
  0x3C, 0x7E, 0xFF, 0xFF, 0xFF, 0xFF, 0x7E, 0x3C, 0x00, 0x00
};
