#define net_width 8
#define net_height 10

static unsigned char net_bits[] = {
  0x00, 0x1C, 0x1C, 0x7F, 0x7F, 0x7F, 0x55, 0x7F, 0x00, 0x00
};
