#define swap_width 8
#define swap_height 10

static unsigned char swap_bits[] = {
  0x3C, 0x4E, 0x8F, 0x8F, 0x8F, 0x8F, 0x4E, 0x3C, 0x00, 0x00
};
